<svg width="6" height="18" viewBox="0 0 6 18" fill="none" xmlns="http://www.w3.org/2000/svg">
<path d="M3.00303 17.2751C2.42719 17.2751 1.93444 17.0705 1.52478 16.6613C1.11511 16.252 0.910278 15.76 0.910278 15.1853C0.910278 14.609 1.11494 14.1157 1.52428 13.7053C1.93344 13.295 2.42536 13.0898 3.00003 13.0898C3.57786 13.0898 4.07061 13.2948 4.47828 13.7046C4.88595 14.1146 5.08978 14.6073 5.08978 15.1828C5.08978 15.7585 4.88595 16.2511 4.47828 16.6606C4.07061 17.0703 3.57886 17.2751 3.00303 17.2751ZM3.00303 11.0898C2.42719 11.0898 1.93444 10.8852 1.52478 10.4758C1.11511 10.0667 0.910278 9.57477 0.910278 9.0001C0.910278 8.42227 1.11494 7.92951 1.52428 7.52185C1.93344 7.11418 2.42536 6.91035 3.00003 6.91035C3.57786 6.91035 4.07061 7.11418 4.47828 7.52185C4.88595 7.92951 5.08978 8.42127 5.08978 8.9971C5.08978 9.57293 4.88595 10.0657 4.47828 10.4753C4.07061 10.885 3.57886 11.0898 3.00303 11.0898ZM3.00303 4.91035C2.42719 4.91035 1.93444 4.70502 1.52478 4.29435C1.11511 3.88368 0.910278 3.38993 0.910278 2.8131C0.910278 2.23627 1.11494 1.7441 1.52428 1.3366C1.93344 0.928932 2.42536 0.725098 3.00003 0.725098C3.57786 0.725098 4.07061 0.928932 4.47828 1.3366C4.88595 1.7441 5.08978 2.23627 5.08978 2.8131C5.08978 3.38993 4.88595 3.88368 4.47828 4.29435C4.07061 4.70502 3.57886 4.91035 3.00303 4.91035Z" fill="#2D446E"/>
</svg>
