<svg width="12" height="13" viewBox="0 0 12 13" fill="none" xmlns="http://www.w3.org/2000/svg">
<path d="M2.92284 10.0768H3.96384L7.93817 6.13583L6.86384 5.0615L2.92284 9.0025V10.0768ZM8.35351 5.7205L8.97651 5.07683C9.04317 5.01017 9.07651 4.93239 9.07651 4.8435C9.07651 4.75461 9.04317 4.67683 8.97651 4.61017L8.38951 4.02317C8.32284 3.9565 8.24506 3.92317 8.15618 3.92317C8.06729 3.92317 7.98951 3.9565 7.92284 4.02317L7.27917 4.64617L8.35351 5.7205ZM1.53817 12.6667C1.20573 12.6667 0.92173 12.5489 0.686175 12.3135C0.45073 12.0779 0.333008 11.7939 0.333008 11.4615V2.5385C0.333008 2.20606 0.45073 1.92206 0.686175 1.6865C0.92173 1.45106 1.20573 1.33333 1.53817 1.33333H4.50484C4.54673 0.963222 4.70829 0.6485 4.98951 0.389166C5.27062 0.129722 5.60734 0 5.99967 0C6.39623 0 6.73512 0.129722 7.01634 0.389166C7.29756 0.6485 7.45695 0.963222 7.49451 1.33333H10.4612C10.7936 1.33333 11.0776 1.45106 11.3132 1.6865C11.5486 1.92206 11.6663 2.20606 11.6663 2.5385V11.4615C11.6663 11.7939 11.5486 12.0779 11.3132 12.3135C11.0776 12.5489 10.7936 12.6667 10.4612 12.6667H1.53817ZM1.53817 11.6667H10.4612C10.5125 11.6667 10.5595 11.6453 10.6022 11.6025C10.645 11.5598 10.6663 11.5128 10.6663 11.4615V2.5385C10.6663 2.48717 10.645 2.44017 10.6022 2.3975C10.5595 2.35472 10.5125 2.33333 10.4612 2.33333H1.53817C1.48684 2.33333 1.43984 2.35472 1.39717 2.3975C1.3544 2.44017 1.33301 2.48717 1.33301 2.5385V11.4615C1.33301 11.5128 1.3544 11.5598 1.39717 11.6025C1.43984 11.6453 1.48684 11.6667 1.53817 11.6667ZM5.99967 1.8975C6.14412 1.8975 6.26356 1.85028 6.35801 1.75583C6.45245 1.66139 6.49967 1.54194 6.49967 1.3975C6.49967 1.25305 6.45245 1.13361 6.35801 1.03917C6.26356 0.944722 6.14412 0.8975 5.99967 0.8975C5.85523 0.8975 5.73579 0.944722 5.64134 1.03917C5.5469 1.13361 5.49967 1.25305 5.49967 1.3975C5.49967 1.54194 5.5469 1.66139 5.64134 1.75583C5.73579 1.85028 5.85523 1.8975 5.99967 1.8975Z" fill="#404040"/>
</svg>
