<svg width="14" height="10" viewBox="0 0 14 10" fill="none" xmlns="http://www.w3.org/2000/svg">
<path d="M10.2944 6.53826C9.87909 6.53826 9.52525 6.3921 9.23292 6.09976C8.94059 5.80743 8.79442 5.4536 8.79442 5.03826C8.79442 4.62282 8.94059 4.26893 9.23292 3.9766C9.52525 3.68437 9.87909 3.53826 10.2944 3.53826C10.7099 3.53826 11.0637 3.68437 11.3559 3.9766C11.6483 4.26893 11.7944 4.62282 11.7944 5.03826C11.7944 5.4536 11.6483 5.80743 11.3559 6.09976C11.0637 6.3921 10.7099 6.53826 10.2944 6.53826ZM7.12775 9.8716V9.10493C7.12775 8.86815 7.18831 8.65076 7.30942 8.45276C7.43053 8.25476 7.60248 8.11232 7.82525 8.02543C8.21303 7.86299 8.61425 7.74115 9.02892 7.65993C9.44359 7.57882 9.86542 7.53826 10.2944 7.53826C10.7149 7.53826 11.1326 7.57882 11.5476 7.65993C11.9626 7.74115 12.368 7.86299 12.7638 8.02543C12.9865 8.11232 13.1584 8.25476 13.2794 8.45276C13.4005 8.65076 13.4611 8.86815 13.4611 9.10493V9.8716H7.12775ZM5.53809 4.7946C4.89642 4.7946 4.34709 4.56615 3.89009 4.10926C3.4332 3.65226 3.20475 3.10293 3.20475 2.46126C3.20475 1.8196 3.4332 1.27032 3.89009 0.81343C4.34709 0.35643 4.89642 0.12793 5.53809 0.12793C6.17975 0.12793 6.72903 0.35643 7.18592 0.81343C7.64292 1.27032 7.87142 1.8196 7.87142 2.46126C7.87142 3.10293 7.64292 3.65226 7.18592 4.10926C6.72903 4.56615 6.17975 4.7946 5.53809 4.7946ZM0.538086 9.8716V8.38943C0.538086 8.05643 0.62503 7.75032 0.798919 7.4711C0.972919 7.19187 1.21159 6.98176 1.51492 6.84076C2.14314 6.52454 2.7952 6.28393 3.47109 6.11893C4.14698 5.95404 4.83597 5.8716 5.53809 5.8716C5.86709 5.8716 6.19614 5.89532 6.52525 5.94276C6.85425 5.99021 7.18331 6.04765 7.51242 6.1151C7.37053 6.2591 7.22864 6.40315 7.08675 6.54726L6.66109 6.97926C6.47398 6.93437 6.28681 6.90521 6.09959 6.89176C5.91236 6.87832 5.7252 6.8716 5.53809 6.8716C4.91498 6.8716 4.30259 6.94293 3.70092 7.0856C3.09914 7.22837 2.52347 7.44421 1.97392 7.7331C1.8457 7.80143 1.74097 7.89093 1.65975 8.0016C1.57864 8.11237 1.53809 8.24165 1.53809 8.38943V8.8716H5.53809V9.8716H0.538086ZM5.53809 3.7946C5.90475 3.7946 6.21864 3.66404 6.47975 3.40293C6.74086 3.14182 6.87142 2.82793 6.87142 2.46126C6.87142 2.0946 6.74086 1.78071 6.47975 1.5196C6.21864 1.25849 5.90475 1.12793 5.53809 1.12793C5.17142 1.12793 4.85753 1.25849 4.59642 1.5196C4.33531 1.78071 4.20475 2.0946 4.20475 2.46126C4.20475 2.82793 4.33531 3.14182 4.59642 3.40293C4.85753 3.66404 5.17142 3.7946 5.53809 3.7946Z" fill="#404040"/>
</svg>
