<svg width="16" height="16" viewBox="0 0 16 16" fill="none" xmlns="http://www.w3.org/2000/svg">
<path d="M13.5753 11.3579C13.1283 10.9106 12.606 10.5455 12.0324 10.2794C12.8413 9.62402 13.3574 8.62402 13.3574 7.50259C13.3574 5.52402 11.7074 3.9008 9.72883 3.93116C7.78062 3.96152 6.21098 5.54902 6.21098 7.50259C6.21098 8.62402 6.72883 9.62402 7.53598 10.2794C6.96224 10.5453 6.43994 10.9104 5.99312 11.3579C5.01812 12.3347 4.46455 13.624 4.42883 14.999C4.42836 15.0181 4.4317 15.037 4.43867 15.0548C4.44563 15.0725 4.45608 15.0887 4.46939 15.1024C4.48271 15.116 4.49862 15.1268 4.51618 15.1342C4.53375 15.1416 4.55263 15.1455 4.57169 15.1454H5.57169C5.64848 15.1454 5.71276 15.0847 5.71455 15.0079C5.74848 13.9722 6.16812 13.0026 6.90562 12.2669C7.28301 11.8875 7.7319 11.5867 8.22632 11.3819C8.72073 11.1772 9.25084 11.0725 9.78598 11.074C10.8735 11.074 11.8967 11.4972 12.6663 12.2669C13.402 13.0026 13.8217 13.9722 13.8574 15.0079C13.8592 15.0847 13.9235 15.1454 14.0003 15.1454H15.0003C15.0193 15.1455 15.0382 15.1416 15.0558 15.1342C15.0733 15.1268 15.0892 15.116 15.1026 15.1024C15.1159 15.0887 15.1263 15.0725 15.1333 15.0548C15.1403 15.037 15.1436 15.0181 15.1431 14.999C15.1074 13.624 14.5538 12.3347 13.5753 11.3579ZM9.78598 9.78831C9.17526 9.78831 8.60026 9.55081 8.16991 9.11866C7.95393 8.90439 7.78333 8.6488 7.66828 8.36716C7.55322 8.08552 7.49608 7.78358 7.50026 7.47938C7.50562 6.89366 7.73955 6.32759 8.14848 5.90795C8.57705 5.46866 9.15026 5.22402 9.76276 5.21688C10.3681 5.21152 10.9556 5.44723 11.3878 5.87045C11.8306 6.30438 12.0735 6.88473 12.0735 7.50259C12.0735 8.11331 11.836 8.68652 11.4038 9.11866C11.1918 9.33169 10.9397 9.50056 10.662 9.6155C10.3843 9.73045 10.0865 9.78918 9.78598 9.78831ZM5.31276 7.97402C5.29669 7.81866 5.28776 7.66152 5.28776 7.50259C5.28776 7.21866 5.31455 6.94188 5.36455 6.67223C5.37705 6.60795 5.34312 6.54188 5.28419 6.51509C5.04133 6.40616 4.81812 6.25616 4.62526 6.06688C4.39801 5.84653 4.21919 5.58124 4.1002 5.28792C3.98121 4.9946 3.92467 4.6797 3.93419 4.36331C3.95026 3.79009 4.18062 3.24545 4.58241 2.83473C5.02348 2.38295 5.61633 2.13652 6.24669 2.14366C6.81633 2.14902 7.36633 2.36866 7.7824 2.75795C7.92348 2.89009 8.04491 3.03652 8.14669 3.19366C8.18241 3.24902 8.25205 3.27223 8.31276 3.2508C8.62705 3.14188 8.95919 3.06509 9.30026 3.02938C9.40026 3.01866 9.4574 2.91152 9.41276 2.82223C8.8324 1.67402 7.64669 0.881162 6.27526 0.859733C4.29491 0.829376 2.64491 2.45259 2.64491 4.42938C2.64491 5.55081 3.16098 6.55081 3.96991 7.20616C3.40205 7.46866 2.87883 7.83116 2.42526 8.28473C1.44669 9.26152 0.89312 10.5508 0.857405 11.9276C0.856929 11.9466 0.860272 11.9656 0.867237 11.9834C0.874203 12.0011 0.88465 12.0173 0.897963 12.0309C0.911277 12.0446 0.927187 12.0554 0.944756 12.0628C0.962325 12.0702 0.981198 12.074 1.00026 12.074H2.00205C2.07883 12.074 2.14312 12.0133 2.14491 11.9365C2.17883 10.9008 2.59848 9.93116 3.33598 9.19545C3.86098 8.67045 4.50383 8.30616 5.20562 8.12938C5.27526 8.11152 5.32169 8.04545 5.31276 7.97402Z" fill="#404040"/>
</svg>
