<svg width="12" height="16" viewBox="0 0 12 16" fill="none" xmlns="http://www.w3.org/2000/svg">
<path d="M11.4286 12.5693H11V6.49783C11 3.97819 9.1375 1.89604 6.71429 1.54961V0.854972C6.71429 0.460329 6.39464 0.140686 6 0.140686C5.60536 0.140686 5.28571 0.460329 5.28571 0.854972V1.54961C2.8625 1.89604 1 3.97819 1 6.49783V12.5693H0.571429C0.255357 12.5693 0 12.8246 0 13.1407V13.7121C0 13.7907 0.0642857 13.855 0.142857 13.855H4C4 14.9585 4.89643 15.855 6 15.855C7.10357 15.855 8 14.9585 8 13.855H11.8571C11.9357 13.855 12 13.7907 12 13.7121V13.1407C12 12.8246 11.7446 12.5693 11.4286 12.5693ZM6 14.7121C5.52679 14.7121 5.14286 14.3282 5.14286 13.855H6.85714C6.85714 14.3282 6.47321 14.7121 6 14.7121ZM2.28571 12.5693V6.49783C2.28571 5.50497 2.67143 4.57283 3.37321 3.87104C4.075 3.16926 5.00714 2.78354 6 2.78354C6.99286 2.78354 7.925 3.16926 8.62679 3.87104C9.32857 4.57283 9.71429 5.50497 9.71429 6.49783V12.5693H2.28571Z" fill="#808080"/>
</svg>
