<svg width="20" height="20" viewBox="0 0 20 20" fill="none" xmlns="http://www.w3.org/2000/svg">
<rect width="20" height="20" fill="#F5F5F5"/>
<g id="Screens">
<path d="M-500 -609C-500 -610.105 -499.105 -611 -498 -611H1217C1218.1 -611 1219 -610.105 1219 -609V2818C1219 2819.1 1218.1 2820 1217 2820H-498C-499.105 2820 -500 2819.1 -500 2818V-609Z" fill="#888888"/>
<path d="M-498 -610H1217V-612H-498V-610ZM1218 -609V2818H1220V-609H1218ZM1217 2819H-498V2821H1217V2819ZM-499 2818V-609H-501V2818H-499ZM-498 2819C-498.552 2819 -499 2818.55 -499 2818H-501C-501 2819.66 -499.657 2821 -498 2821V2819ZM1218 2818C1218 2818.55 1217.55 2819 1217 2819V2821C1218.66 2821 1220 2819.66 1220 2818H1218ZM1217 -610C1217.55 -610 1218 -609.552 1218 -609H1220C1220 -610.657 1218.66 -612 1217 -612V-610ZM-498 -612C-499.657 -612 -501 -610.657 -501 -609H-499C-499 -609.552 -498.552 -610 -498 -610V-612Z" fill="black" fill-opacity="0.1"/>
<g id="Project Over view/Kanban" clip-path="url(#clip0_64_7131)">
<rect width="1280" height="1696" transform="translate(-285 -415)" fill="white"/>
<g id="Frame 1000004815">
<g id="Frame 26" filter="url(#filter0_dd_64_7131)">
<g id="Frame 25" filter="url(#filter1_d_64_7131)">
<rect x="-209.5" y="-195.5" width="1179" height="672" rx="7.5" stroke="#F1F1F1" shape-rendering="crispEdges"/>
<g id="project/card/List">
<rect x="-190" y="-176" width="270" height="633" rx="8" fill="white"/>
<g id="Frame 35">
<g id="Frame 32">
<g id="Project/cards">
<rect x="-190" y="-143" width="270" height="175" rx="8" stroke="#F2F2F2"/>
<g id="Project" filter="url(#filter2_d_64_7131)">
<rect x="-190" y="-143" width="270" height="175" rx="8" stroke="#F1F1F1" stroke-width="0.5" shape-rendering="crispEdges"/>
<g id="Frame 31" filter="url(#filter3_d_64_7131)">
<rect id="Rectangle 8" x="-190" y="-143" width="270" height="175" rx="8" fill="#FEFEFE"/>
<g id="Frame 1707485897">
<g id="Frame 1707485893">
<mask id="path-9-inside-1_64_7131" fill="white">
<path d="M-180 -14H70V22H-180V-14Z"/>
</mask>
<path d="M-180 -13.5H70V-14.5H-180V-13.5Z" fill="#F1F1F1" mask="url(#path-9-inside-1_64_7131)"/>
<g id="Frame 1707485896">
<g id="TY Icon" clip-path="url(#clip1_64_7131)">
<g id="clip-file_16769134 1">
<path id="Vector" d="M17.7639 15.7291C17.7639 17.6933 16.1656 19.2916 14.2014 19.2916H5.79861C3.83437 19.2916 2.23611 17.6933 2.23611 15.7291V4.27075C2.23611 2.30651 3.83437 0.708252 5.79861 0.708252H8.09028C8.37015 0.708252 8.59723 0.935327 8.59723 1.2152C8.59723 1.49507 8.37015 1.72214 8.09028 1.72214H5.79861C4.39334 1.72214 3.25 2.86548 3.25 4.27075V15.7291C3.25 17.1344 4.39334 18.2777 5.79861 18.2777H14.2014C15.6067 18.2777 16.75 17.1344 16.75 15.7291V4.27075C16.75 3.36366 16.2613 2.51726 15.4757 2.06289L17.7639 15.7291ZM17.7639 15.7291V4.27075M17.7639 15.7291V4.27075M17.7639 4.27075C17.7639 3.00253 17.0826 1.82091 15.9838 1.18587C15.74 1.04292 15.4298 1.12854 15.2909 1.37046M17.7639 4.27075L15.2909 1.37046M15.2909 1.37046C15.1502 1.61289 15.2335 1.92297 15.4756 2.06285L15.2909 1.37046ZM5.79861 15.2221C5.51875 15.2221 5.29167 15.4492 5.29167 15.7291C5.29167 16.009 5.51875 16.236 5.79861 16.236H14.2014C14.4813 16.236 14.7083 16.009 14.7083 15.7291C14.7083 15.4492 14.4813 15.2221 14.2014 15.2221H5.79861ZM5.79861 12.9305C5.51875 12.9305 5.29167 13.1575 5.29167 13.4374C5.29167 13.7173 5.51875 13.9444 5.79861 13.9444H14.2014C14.4813 13.9444 14.7083 13.7173 14.7083 13.4374C14.7083 13.1575 14.4813 12.9305 14.2014 12.9305H5.79861ZM9.61806 9.36103C9.89793 9.36103 10.125 9.13395 10.125 8.85408V3.50686C10.125 2.52326 10.9261 1.72214 11.9097 1.72214C12.8933 1.72214 13.6944 2.52326 13.6944 3.50686V9.99992C13.6944 10.3518 13.4074 10.6388 13.0556 10.6388C12.7037 10.6388 12.4167 10.3518 12.4167 9.99992V3.50686C12.4167 3.22699 12.1896 2.99992 11.9097 2.99992C11.6299 2.99992 11.4028 3.22699 11.4028 3.50686V9.99992C11.4028 10.9115 12.144 11.6527 13.0556 11.6527C13.9672 11.6527 14.7083 10.9115 14.7083 9.99992V3.50686C14.7083 1.96352 13.4531 0.708252 11.9097 0.708252C10.3664 0.708252 9.11111 1.96352 9.11111 3.50686V8.85408C9.11111 9.13395 9.33819 9.36103 9.61806 9.36103ZM5.79861 11.6527H9.61806C9.89793 11.6527 10.125 11.4256 10.125 11.1458C10.125 10.8659 9.89793 10.6388 9.61806 10.6388H5.79861C5.51875 10.6388 5.29167 10.8659 5.29167 11.1458C5.29167 11.4256 5.51875 11.6527 5.79861 11.6527Z" fill="#404040" stroke="#404040" stroke-width="0.25"/>
</g>
</g>
</g>
</g>
</g>
</g>
</g>
</g>
</g>
</g>
</g>
</g>
</g>
</g>
</g>
</g>
<defs>
<filter id="filter0_dd_64_7131" x="-214" y="-330" width="1188" height="815" filterUnits="userSpaceOnUse" color-interpolation-filters="sRGB">
<feFlood flood-opacity="0" result="BackgroundImageFix"/>
<feColorMatrix in="SourceAlpha" type="matrix" values="0 0 0 0 0 0 0 0 0 0 0 0 0 0 0 0 0 0 127 0" result="hardAlpha"/>
<feOffset dy="4"/>
<feGaussianBlur stdDeviation="2"/>
<feComposite in2="hardAlpha" operator="out"/>
<feColorMatrix type="matrix" values="0 0 0 0 0 0 0 0 0 0 0 0 0 0 0 0 0 0 0.25 0"/>
<feBlend mode="normal" in2="BackgroundImageFix" result="effect1_dropShadow_64_7131"/>
<feColorMatrix in="SourceAlpha" type="matrix" values="0 0 0 0 0 0 0 0 0 0 0 0 0 0 0 0 0 0 127 0" result="hardAlpha"/>
<feOffset dy="4"/>
<feGaussianBlur stdDeviation="2"/>
<feComposite in2="hardAlpha" operator="out"/>
<feColorMatrix type="matrix" values="0 0 0 0 0 0 0 0 0 0 0 0 0 0 0 0 0 0 0.25 0"/>
<feBlend mode="normal" in2="effect1_dropShadow_64_7131" result="effect2_dropShadow_64_7131"/>
<feBlend mode="normal" in="SourceGraphic" in2="effect2_dropShadow_64_7131" result="shape"/>
</filter>
<filter id="filter1_d_64_7131" x="-216" y="-202" width="1192" height="685" filterUnits="userSpaceOnUse" color-interpolation-filters="sRGB">
<feFlood flood-opacity="0" result="BackgroundImageFix"/>
<feColorMatrix in="SourceAlpha" type="matrix" values="0 0 0 0 0 0 0 0 0 0 0 0 0 0 0 0 0 0 127 0" result="hardAlpha"/>
<feMorphology radius="1" operator="dilate" in="SourceAlpha" result="effect1_dropShadow_64_7131"/>
<feOffset/>
<feGaussianBlur stdDeviation="2.5"/>
<feComposite in2="hardAlpha" operator="out"/>
<feColorMatrix type="matrix" values="0 0 0 0 0 0 0 0 0 0 0 0 0 0 0 0 0 0 0.15 0"/>
<feBlend mode="normal" in2="BackgroundImageFix" result="effect1_dropShadow_64_7131"/>
<feBlend mode="normal" in="SourceGraphic" in2="effect1_dropShadow_64_7131" result="shape"/>
</filter>
<filter id="filter2_d_64_7131" x="-193.25" y="-145.25" width="276.5" height="181.5" filterUnits="userSpaceOnUse" color-interpolation-filters="sRGB">
<feFlood flood-opacity="0" result="BackgroundImageFix"/>
<feColorMatrix in="SourceAlpha" type="matrix" values="0 0 0 0 0 0 0 0 0 0 0 0 0 0 0 0 0 0 127 0" result="hardAlpha"/>
<feOffset dy="1"/>
<feGaussianBlur stdDeviation="1.5"/>
<feComposite in2="hardAlpha" operator="out"/>
<feColorMatrix type="matrix" values="0 0 0 0 0 0 0 0 0 0 0 0 0 0 0 0 0 0 0.1 0"/>
<feBlend mode="normal" in2="BackgroundImageFix" result="effect1_dropShadow_64_7131"/>
<feBlend mode="normal" in="SourceGraphic" in2="effect1_dropShadow_64_7131" result="shape"/>
</filter>
<filter id="filter3_d_64_7131" x="-196" y="-149" width="282" height="187" filterUnits="userSpaceOnUse" color-interpolation-filters="sRGB">
<feFlood flood-opacity="0" result="BackgroundImageFix"/>
<feColorMatrix in="SourceAlpha" type="matrix" values="0 0 0 0 0 0 0 0 0 0 0 0 0 0 0 0 0 0 127 0" result="hardAlpha"/>
<feMorphology radius="1" operator="dilate" in="SourceAlpha" result="effect1_dropShadow_64_7131"/>
<feOffset/>
<feGaussianBlur stdDeviation="2.5"/>
<feComposite in2="hardAlpha" operator="out"/>
<feColorMatrix type="matrix" values="0 0 0 0 0 0 0 0 0 0 0 0 0 0 0 0 0 0 0.15 0"/>
<feBlend mode="normal" in2="BackgroundImageFix" result="effect1_dropShadow_64_7131"/>
<feBlend mode="normal" in="SourceGraphic" in2="effect1_dropShadow_64_7131" result="shape"/>
</filter>
<clipPath id="clip0_64_7131">
<rect width="1280" height="1696" fill="white" transform="translate(-285 -415)"/>
</clipPath>
<clipPath id="clip1_64_7131">
<rect width="20" height="20" fill="white"/>
</clipPath>
</defs>
</svg>
